<svg width="30" height="30" viewBox="0 0 30 30" fill="none" xmlns="http://www.w3.org/2000/svg">
<path d="M29.4731 11.7924L25.7194 8.73305V3.84037C25.7194 3.28941 25.271 2.8411 24.7201 2.8411H22.3582C21.8072 2.8411 21.3589 3.28941 21.3589 3.84037V5.17911L16.3432 1.09129C15.9804 0.795693 15.5022 0.632812 14.9968 0.632812C14.4933 0.632812 14.0174 0.794694 13.6566 1.08875L0.526831 11.7923C-0.0697314 12.2784 -0.0339395 12.7018 0.0404605 12.9109C0.114679 13.1196 0.353685 13.4697 1.12003 13.4697H2.9179V27.5454C2.9179 28.55 3.73293 29.3671 4.73475 29.3671H10.4124C11.4058 29.3671 12.1838 28.5669 12.1838 27.5454V21.7732C12.1838 21.2785 12.6385 20.828 13.1377 20.828H16.9531C17.4289 20.828 17.8161 21.2521 17.8161 21.7732V27.5454C17.8161 28.5329 18.6689 29.3671 19.6783 29.3671H25.2651C26.267 29.3671 27.082 28.5499 27.082 27.5454V13.4697H28.8799C29.6462 13.4697 29.8851 13.1196 29.9594 12.9109C30.0338 12.7018 30.0696 12.2784 29.4731 11.7924Z" fill="white"/>
</svg>
